<svg width="193" height="193" viewBox="0 0 193 193" fill="none" xmlns="http://www.w3.org/2000/svg">
<path d="M94.3772 53.552L41.2755 75.9893C35.5933 78.3903 35.5693 86.4343 41.2371 88.869L94.3383 111.68C96.1257 112.448 98.152 112.437 99.9312 111.651L151.537 88.8395C157.116 86.3737 157.091 78.4495 151.498 76.0176L99.8928 53.5805C98.1357 52.8165 96.1422 52.8062 94.3772 53.552Z" fill="#157AFE"/>
<path d="M59.1411 119.572V101.884L89.5431 115.031C93.761 116.855 98.5376 116.893 102.784 115.138L133.641 102.384V122.11C133.641 122.958 133.569 123.805 133.358 124.625C132.867 126.537 131.707 130.161 129.641 131.884C125.651 135.21 112.29 137.878 109.982 138.32C109.751 138.364 109.53 138.41 109.3 138.46C107.893 138.764 102.323 139.877 96.1411 139.884C91.4184 139.889 88.7756 139.293 84.1411 138.384C79.1739 137.41 72.7321 135.168 68.5204 133.59C65.6624 132.52 63.3037 130.46 61.7563 127.83L61.074 126.67C59.8085 124.519 59.1411 122.068 59.1411 119.572Z" fill="#157AFE"/>
<path d="M59.1411 101.884L59.3396 101.425C59.185 101.358 59.0073 101.374 58.8665 101.466C58.7258 101.559 58.6411 101.716 58.6411 101.884H59.1411ZM133.641 102.384H134.141C134.141 102.217 134.058 102.061 133.919 101.968C133.78 101.876 133.604 101.858 133.45 101.922L133.641 102.384ZM102.784 115.138L102.975 115.6L102.784 115.138ZM89.5431 115.031L89.3447 115.49L89.5431 115.031ZM84.1411 138.384L84.2373 137.893L84.1411 138.384ZM96.1411 139.884L96.1406 139.384L96.1411 139.884ZM61.074 126.67L61.505 126.416H61.505L61.074 126.67ZM61.7563 127.83L62.1873 127.576L61.7563 127.83ZM68.5204 133.59L68.345 134.058L68.5204 133.59ZM109.3 138.46L109.194 137.971L109.3 138.46ZM109.982 138.32L110.076 138.811H110.076L109.982 138.32ZM129.641 131.884L129.961 132.268L129.641 131.884ZM133.358 124.625L132.874 124.501V124.501L133.358 124.625ZM58.6411 101.884V119.572H59.6411V101.884H58.6411ZM134.141 122.11V102.384H133.141V122.11H134.141ZM133.45 101.922L102.593 114.676L102.975 115.6L133.832 102.846L133.45 101.922ZM89.7416 114.572L59.3396 101.425L58.9427 102.343L89.3447 115.49L89.7416 114.572ZM84.0449 138.875C88.674 139.782 91.3629 140.389 96.1417 140.384L96.1406 139.384C91.4738 139.389 88.8773 138.803 84.2373 137.893L84.0449 138.875ZM60.6431 126.924L61.3253 128.083L62.1873 127.576L61.505 126.416L60.6431 126.924ZM68.345 134.058C72.5579 135.636 79.0335 137.892 84.0449 138.875L84.2373 137.893C79.3143 136.928 72.9064 134.699 68.6958 133.122L68.345 134.058ZM96.1417 140.384C102.375 140.377 107.985 139.256 109.406 138.949L109.194 137.971C107.801 138.272 102.271 139.377 96.1406 139.384L96.1417 140.384ZM110.076 138.811C111.235 138.589 115.167 137.809 119.314 136.666C121.386 136.094 123.521 135.43 125.393 134.696C127.254 133.967 128.899 133.153 129.961 132.268L129.321 131.5C128.388 132.278 126.867 133.045 125.028 133.765C123.201 134.481 121.103 135.135 119.048 135.702C114.939 136.835 111.037 137.609 109.888 137.829L110.076 138.811ZM129.961 132.268C131.081 131.335 131.926 129.916 132.547 128.53C133.172 127.134 133.593 125.721 133.842 124.75L132.874 124.501C132.632 125.442 132.228 126.796 131.634 128.121C131.036 129.456 130.268 130.711 129.321 131.5L129.961 132.268ZM61.3253 128.083C62.9272 130.807 65.3733 132.945 68.345 134.058L68.6958 133.122C65.9515 132.094 63.6802 130.114 62.1873 127.576L61.3253 128.083ZM102.593 114.676C98.4715 116.38 93.8354 116.342 89.7416 114.572L89.3447 115.49C93.6866 117.367 98.6037 117.407 102.975 115.6L102.593 114.676ZM109.406 138.949C109.634 138.899 109.85 138.854 110.076 138.811L109.888 137.829C109.651 137.874 109.427 137.921 109.194 137.971L109.406 138.949ZM133.141 122.11C133.141 122.931 133.071 123.733 132.874 124.501L133.842 124.75C134.067 123.876 134.141 122.985 134.141 122.11H133.141ZM58.6411 119.572C58.6411 122.157 59.3323 124.695 60.6431 126.924L61.505 126.416C60.2846 124.342 59.6411 121.979 59.6411 119.572H58.6411Z" fill="#157AFE"/>
<path d="M150.141 111.384C150.141 114.974 147.231 117.884 143.641 117.884C140.051 117.884 137.141 114.974 137.141 111.384C137.141 107.794 140.051 104.884 143.641 104.884C147.231 104.884 150.141 107.794 150.141 111.384Z" fill="#157AFE"/>
<path d="M137.141 119.884C137.141 117.675 138.932 115.884 141.141 115.884H146.141C148.35 115.884 150.141 117.675 150.141 119.884V126.884C150.141 128.541 148.798 129.884 147.141 129.884H140.141C138.484 129.884 137.141 128.541 137.141 126.884V119.884Z" fill="#157AFE"/>
<path d="M146.141 96.884L141.141 98.884V105.384H146.141V96.884Z" fill="#157AFE"/>
<path fill-rule="evenodd" clip-rule="evenodd" d="M146.421 96.47C146.559 96.563 146.641 96.7181 146.641 96.884V105.384C146.641 105.66 146.417 105.884 146.141 105.884H141.141C140.865 105.884 140.641 105.66 140.641 105.384V98.884C140.641 98.6796 140.766 98.4957 140.955 98.4198L145.955 96.4198C146.109 96.3582 146.284 96.377 146.421 96.47ZM141.641 99.2226V104.884H145.641V97.6226L141.641 99.2226Z" fill="#157AFE"/>
</svg>
